<svg xmlns="http://www.w3.org/2000/svg" viewBox="149.50 86.50 397.10 155.63">
<g fill="none" stroke-linecap="round">
  <path d="M237.4,111 A46,46 0 1 0 237.4,189" stroke="#e08a3c" stroke-width="3"/>
  <path d="M233.7,116.9 A39,39 0 1 0 233.7,183.1" stroke="#1c5d7a" stroke-width="10"/>
  <path d="M233.7,116.9 A39,39 0 1 0 233.7,183.1" stroke="#fdfdf8" stroke-width="1.4" stroke-dasharray="1 7"/>
  <path d="M228.4,125.4 A29,29 0 1 0 228.4,174.6" stroke="#3f9e57" stroke-width="3"/>
  <path d="M224.7,131.3 A22,22 0 1 0 224.7,168.7" stroke="#2f86c4" stroke-width="3"/>
</g>
<g>
  <circle cx="237.4" cy="111" r="2.2" fill="#e08a3c"/>
  <circle cx="228.4" cy="125.4" r="2" fill="#3f9e57"/>
  <circle cx="224.7" cy="131.3" r="2" fill="#2f86c4"/>
  <circle cx="237.4" cy="189" r="3" fill="#1c5d7a"/>
  <circle cx="237.4" cy="189" r="1.2" fill="#fdfdf8"/>
  <circle cx="228.4" cy="174.6" r="2" fill="#3f9e57"/>
  <circle cx="224.7" cy="168.7" r="2" fill="#2f86c4"/>
</g><g transform="translate(262.00,184.00) scale(0.09200,-0.09200)"><path d="M419 -14Q336 -14 265.5 13.0Q195 40 143.5 88.5Q92 137 63.0 203.5Q34 270 34 350Q34 430 63.0 496.5Q92 563 143.5 611.5Q195 660 265.5 687.0Q336 714 419 714Q516 714 592.5 680.0Q669 646 720 582L594 468Q561 508 520.0 529.0Q479 550 429 550Q371 550 327.5 525.0Q284 500 259.0 455.0Q234 410 234 350Q234 290 259.0 245.0Q284 200 327.5 175.0Q371 150 429 150Q479 150 520.0 171.0Q561 192 594 232L720 118Q669 54 592.5 20.0Q516 -14 419 -14ZM726.8695652173913 0 1035.8695652173913 700H1230.8695652173913L1540.8695652173913 0H1334.8695652173913L1279.8695652173913 136H983.8695652173913L928.8695652173913 0ZM1041.8695652173913 282H1221.8695652173913L1131.8695652173913 506ZM1607.7391304347825 0V700H1920.7391304347825Q2074.7391304347825 700 2156.7391304347825 630.5Q2238.7391304347825 561 2238.7391304347825 441Q2238.7391304347825 364 2202.7391304347825 307.5Q2166.7391304347825 251 2100.7391304347825 220L2252.7391304347825 0H2040.7391304347825L1913.7391304347825 186H1805.7391304347825V0ZM1805.7391304347825 339H1915.7391304347825Q1977.7391304347825 339 2008.2391304347825 366.0Q2038.7391304347825 393 2038.7391304347825 441Q2038.7391304347825 490 2008.2391304347825 517.0Q1977.7391304347825 544 1915.7391304347825 544H1805.7391304347825ZM2507.608695652174 0V543H2292.608695652174V700H2919.608695652174V543H2705.608695652174V0Z" fill="#1c5d7a"/></g><rect x="265.13" y="201.0" width="265.48" height="3" fill="#1c5d7a"/><g transform="translate(170.78,226.00) scale(0.01350,-0.01350)"><path d="M418 -10Q338 -10 269.5 16.5Q201 43 150.5 91.5Q100 140 72.0 206.0Q44 272 44 350Q44 428 72.0 494.0Q100 560 150.5 608.5Q201 657 269.5 683.5Q338 710 419 710Q505 710 576.0 680.0Q647 650 696 593L612 514Q536 596 425 596Q352 596 295.5 564.5Q239 533 207.0 477.5Q175 422 175 350Q175 278 207.0 222.5Q239 167 295.5 135.5Q352 104 425 104Q537 104 612 187L696 107Q647 50 576.0 20.0Q505 -10 418 -10ZM1004.5925925925926 0V700H1134.5925925925926V110H1500.5925925925926V0ZM1796.1851851851852 0V700H2307.185185185185V591H1926.1851851851852V409H2264.185185185185V302H1926.1851851851852V109H2321.185185185185V0ZM2658.777777777778 0V700H2945.777777777778Q3085.777777777778 700 3165.277777777778 633.5Q3244.777777777778 567 3244.777777777778 451Q3244.777777777778 371 3205.777777777778 314.5Q3166.777777777778 258 3095.777777777778 229L3256.777777777778 0H3116.777777777778L2973.777777777778 205Q2960.777777777778 204 2946.777777777778 204H2788.777777777778V0ZM2788.777777777778 311H2940.777777777778Q3026.777777777778 311 3070.277777777778 348.0Q3113.777777777778 385 3113.777777777778 451Q3113.777777777778 517 3070.277777777778 553.5Q3026.777777777778 590 2940.777777777778 590H2788.777777777778ZM3582.3703703703704 0V700H3689.3703703703704L3967.3703703703704 237L4240.37037037037 700H4347.37037037037L4348.37037037037 0H4225.37037037037L4224.37037037037 463L3994.3703703703704 80H3936.3703703703704L3706.3703703703704 458V0ZM5056.9629629629635 -10Q4975.9629629629635 -10 4906.9629629629635 17.0Q4837.9629629629635 44 4786.9629629629635 92.5Q4735.9629629629635 141 4707.9629629629635 206.5Q4679.9629629629635 272 4679.9629629629635 350Q4679.9629629629635 428 4707.9629629629635 493.5Q4735.9629629629635 559 4786.9629629629635 607.5Q4837.9629629629635 656 4906.9629629629635 683.0Q4975.9629629629635 710 5056.9629629629635 710Q5138.9629629629635 710 5207.4629629629635 683.0Q5275.9629629629635 656 5326.9629629629635 607.5Q5377.9629629629635 559 5405.9629629629635 493.5Q5433.9629629629635 428 5433.9629629629635 350Q5433.9629629629635 272 5405.9629629629635 206.5Q5377.9629629629635 141 5326.9629629629635 92.5Q5275.9629629629635 44 5207.4629629629635 17.0Q5138.9629629629635 -10 5056.9629629629635 -10ZM5056.9629629629635 104Q5127.9629629629635 104 5183.4629629629635 135.5Q5238.9629629629635 167 5270.9629629629635 223.0Q5302.9629629629635 279 5302.9629629629635 350Q5302.9629629629635 421 5270.9629629629635 477.0Q5238.9629629629635 533 5183.4629629629635 564.5Q5127.9629629629635 596 5056.9629629629635 596Q4985.9629629629635 596 4930.4629629629635 564.5Q4874.9629629629635 533 4842.9629629629635 477.0Q4810.9629629629635 421 4810.9629629629635 350Q4810.9629629629635 279 4842.9629629629635 223.0Q4874.9629629629635 167 4930.4629629629635 135.5Q4985.9629629629635 104 5056.9629629629635 104ZM5764.555555555557 0V700H5871.555555555557L6257.555555555557 226V700H6386.555555555557V0H6279.555555555557L5893.555555555557 474V0ZM6909.14814814815 0V590H6677.14814814815V700H7271.14814814815V590H7039.14814814815V0ZM7931.333333333336 0 8246.333333333336 700H8374.333333333336L8690.333333333336 0H8554.333333333336L8484.333333333336 162H8134.333333333336L8065.333333333336 0ZM8178.333333333336 264H8440.333333333336L8309.333333333336 570ZM8971.925925925929 0V700H9258.925925925929Q9398.925925925929 700 9478.425925925929 633.5Q9557.925925925929 567 9557.925925925929 451Q9557.925925925929 371 9518.925925925929 314.5Q9479.925925925929 258 9408.925925925929 229L9569.925925925929 0H9429.925925925929L9286.925925925929 205Q9273.925925925929 204 9259.925925925929 204H9101.925925925929V0ZM9101.925925925929 311H9253.925925925929Q9339.925925925929 311 9383.425925925929 348.0Q9426.925925925929 385 9426.925925925929 451Q9426.925925925929 517 9383.425925925929 553.5Q9339.925925925929 590 9253.925925925929 590H9101.925925925929ZM9895.518518518522 0V700H10406.518518518522V591H10025.518518518522V409H10363.518518518522V302H10025.518518518522V109H10420.518518518522V0ZM10659.111111111115 0 10974.111111111115 700H11102.111111111115L11418.111111111115 0H11282.111111111115L11212.111111111115 162H10862.111111111115L10793.111111111115 0ZM10906.111111111115 264H11168.111111111115L11037.111111111115 570ZM12168.296296296301 0V700H12455.296296296301Q12595.296296296301 700 12674.796296296301 633.5Q12754.296296296301 567 12754.296296296301 451Q12754.296296296301 371 12715.296296296301 314.5Q12676.296296296301 258 12605.296296296301 229L12766.296296296301 0H12626.296296296301L12483.296296296301 205Q12470.296296296301 204 12456.296296296301 204H12298.296296296301V0ZM12298.296296296301 311H12450.296296296301Q12536.296296296301 311 12579.796296296301 348.0Q12623.296296296301 385 12623.296296296301 451Q12623.296296296301 517 12579.796296296301 553.5Q12536.296296296301 590 12450.296296296301 590H12298.296296296301ZM13418.888888888894 -10Q13337.888888888894 -10 13268.888888888894 17.0Q13199.888888888894 44 13148.888888888894 92.5Q13097.888888888894 141 13069.888888888894 206.5Q13041.888888888894 272 13041.888888888894 350Q13041.888888888894 428 13069.888888888894 493.5Q13097.888888888894 559 13148.888888888894 607.5Q13199.888888888894 656 13268.888888888894 683.0Q13337.888888888894 710 13418.888888888894 710Q13500.888888888894 710 13569.388888888894 683.0Q13637.888888888894 656 13688.888888888894 607.5Q13739.888888888894 559 13767.888888888894 493.5Q13795.888888888894 428 13795.888888888894 350Q13795.888888888894 272 13767.888888888894 206.5Q13739.888888888894 141 13688.888888888894 92.5Q13637.888888888894 44 13569.388888888894 17.0Q13500.888888888894 -10 13418.888888888894 -10ZM13418.888888888894 104Q13489.888888888894 104 13545.388888888894 135.5Q13600.888888888894 167 13632.888888888894 223.0Q13664.888888888894 279 13664.888888888894 350Q13664.888888888894 421 13632.888888888894 477.0Q13600.888888888894 533 13545.388888888894 564.5Q13489.888888888894 596 13418.888888888894 596Q13347.888888888894 596 13292.388888888894 564.5Q13236.888888888894 533 13204.888888888894 477.0Q13172.888888888894 421 13172.888888888894 350Q13172.888888888894 279 13204.888888888894 223.0Q13236.888888888894 167 13292.388888888894 135.5Q13347.888888888894 104 13418.888888888894 104ZM14027.481481481487 0 14342.481481481487 700H14470.481481481487L14786.481481481487 0H14650.481481481487L14580.481481481487 162H14230.481481481487L14161.481481481487 0ZM14274.481481481487 264H14536.481481481487L14405.481481481487 570ZM15068.07407407408 0V700H15374.07407407408Q15488.07407407408 700 15574.07407407408 656.5Q15660.07407407408 613 15708.07407407408 534.0Q15756.07407407408 455 15756.07407407408 350Q15756.07407407408 245 15708.07407407408 166.0Q15660.07407407408 87 15574.07407407408 43.5Q15488.07407407408 0 15374.07407407408 0ZM15198.07407407408 110H15368.07407407408Q15446.07407407408 110 15504.07407407408 139.5Q15562.07407407408 169 15593.57407407408 223.0Q15625.07407407408 277 15625.07407407408 350Q15625.07407407408 423 15593.57407407408 477.0Q15562.07407407408 531 15504.07407407408 560.5Q15446.07407407408 590 15368.07407407408 590H15198.07407407408ZM16303.666666666673 -10Q16221.666666666673 -10 16146.666666666673 13.5Q16071.666666666673 37 16027.666666666673 74L16072.666666666673 175Q16114.666666666673 141 16176.666666666673 119.5Q16238.666666666673 98 16303.666666666673 98Q16385.66666666667 98 16422.16666666667 124.0Q16458.66666666667 150 16458.66666666667 189Q16458.66666666667 221 16436.16666666667 240.5Q16413.66666666667 260 16376.666666666672 271.5Q16339.666666666673 283 16295.166666666673 293.0Q16250.666666666673 303 16206.166666666673 316.5Q16161.666666666673 330 16124.666666666673 351.5Q16087.666666666673 373 16065.166666666673 409.0Q16042.666666666673 445 16042.666666666673 501Q16042.666666666673 558 16073.166666666673 605.5Q16103.666666666673 653 16166.166666666673 681.5Q16228.666666666673 710 16324.666666666673 710Q16387.66666666667 710 16449.66666666667 694.0Q16511.66666666667 678 16557.66666666667 648L16516.66666666667 547Q16469.66666666667 575 16419.66666666667 588.5Q16369.666666666673 602 16323.666666666673 602Q16242.666666666673 602 16207.166666666673 574.0Q16171.666666666673 546 16171.666666666673 507Q16171.666666666673 475 16194.166666666673 456.0Q16216.666666666673 437 16253.666666666673 425.0Q16290.666666666673 413 16335.166666666673 403.5Q16379.666666666673 394 16423.66666666667 381.0Q16467.66666666667 368 16504.66666666667 346.0Q16541.66666666667 324 16564.16666666667 288.5Q16586.66666666667 253 16586.66666666667 198Q16586.66666666667 142 16556.16666666667 94.5Q16525.66666666667 47 16462.66666666667 18.5Q16399.66666666667 -10 16303.666666666673 -10ZM17277.851851851858 0 17592.851851851858 700H17720.851851851858L18036.851851851858 0H17900.851851851858L17830.851851851858 162H17480.851851851858L17411.851851851858 0ZM17524.851851851858 264H17786.851851851858L17655.851851851858 570ZM18318.44444444445 0V700H18425.44444444445L18811.44444444445 226V700H18940.44444444445V0H18833.44444444445L18447.44444444445 474V0ZM19321.03703703704 0V700H19627.03703703704Q19741.03703703704 700 19827.03703703704 656.5Q19913.03703703704 613 19961.03703703704 534.0Q20009.03703703704 455 20009.03703703704 350Q20009.03703703704 245 19961.03703703704 166.0Q19913.03703703704 87 19827.03703703704 43.5Q19741.03703703704 0 19627.03703703704 0ZM19451.03703703704 110H19621.03703703704Q19699.03703703704 110 19757.03703703704 139.5Q19815.03703703704 169 19846.53703703704 223.0Q19878.03703703704 277 19878.03703703704 350Q19878.03703703704 423 19846.53703703704 477.0Q19815.03703703704 531 19757.03703703704 560.5Q19699.03703703704 590 19621.03703703704 590H19451.03703703704ZM20950.222222222223 0V590H20718.222222222223V700H21312.222222222223V590H21080.222222222223V0ZM21602.814814814814 0V700H21889.814814814814Q22029.814814814814 700 22109.314814814814 633.5Q22188.814814814814 567 22188.814814814814 451Q22188.814814814814 371 22149.814814814814 314.5Q22110.814814814814 258 22039.814814814814 229L22200.814814814814 0H22060.814814814814L21917.814814814814 205Q21904.814814814814 204 21890.814814814814 204H21732.814814814814V0ZM21732.814814814814 311H21884.814814814814Q21970.814814814814 311 22014.314814814814 348.0Q22057.814814814814 385 22057.814814814814 451Q22057.814814814814 517 22014.314814814814 553.5Q21970.814814814814 590 21884.814814814814 590H21732.814814814814ZM22427.407407407405 0 22742.407407407405 700H22870.407407407405L23186.407407407405 0H23050.407407407405L22980.407407407405 162H22630.407407407405L22561.407407407405 0ZM22674.407407407405 264H22936.407407407405L22805.407407407405 570ZM23467.999999999996 0V700H23978.999999999996V591H23597.999999999996V378H23935.999999999996V268H23597.999999999996V0ZM24297.592592592588 0V700H24808.592592592588V591H24427.592592592588V378H24765.592592592588V268H24427.592592592588V0ZM25127.18518518518 0V700H25257.18518518518V0ZM25962.77777777777 -10Q25882.77777777777 -10 25814.27777777777 16.5Q25745.77777777777 43 25695.27777777777 91.5Q25644.77777777777 140 25616.77777777777 206.0Q25588.77777777777 272 25588.77777777777 350Q25588.77777777777 428 25616.77777777777 494.0Q25644.77777777777 560 25695.27777777777 608.5Q25745.77777777777 657 25814.27777777777 683.5Q25882.77777777777 710 25963.77777777777 710Q26049.77777777777 710 26120.77777777777 680.0Q26191.77777777777 650 26240.77777777777 593L26156.77777777777 514Q26080.77777777777 596 25969.77777777777 596Q25896.77777777777 596 25840.27777777777 564.5Q25783.77777777777 533 25751.77777777777 477.5Q25719.77777777777 422 25719.77777777777 350Q25719.77777777777 278 25751.77777777777 222.5Q25783.77777777777 167 25840.27777777777 135.5Q25896.77777777777 104 25969.77777777777 104Q26081.77777777777 104 26156.77777777777 187L26240.77777777777 107Q26191.77777777777 50 26120.77777777777 20.0Q26049.77777777777 -10 25962.77777777777 -10Z" fill="#1c5d7a"/></g></svg>